<?xml version="1.0" standalone="no"?>
<!DOCTYPE svg PUBLIC "-//W3C//DTD SVG 1.1//EN" "http://www.w3.org/Graphics/SVG/1.1/DTD/svg11.dtd">
<svg width="800" height="600" version="1.1" xmlns="http://www.w3.org/2000/svg">
<rect width="800" height="600" x="0" y="0" style="fill:rgb(238,238,238);stroke:none"/>
<rect width="800" height="600" x="0" y="0" style="fill:rgb(255,255,255);stroke:none"/>
<text x="2" y="566" fill="rgb(0,0,0)" font-family="Arial" font-size="12">0</text>
<text x="2" y="514" fill="rgb(0,0,0)" font-family="Arial" font-size="12">10</text>
<text x="2" y="462" fill="rgb(0,0,0)" font-family="Arial" font-size="12">20</text>
<text x="2" y="410" fill="rgb(0,0,0)" font-family="Arial" font-size="12">30</text>
<text x="2" y="358" fill="rgb(0,0,0)" font-family="Arial" font-size="12">40</text>
<text x="2" y="306" fill="rgb(0,0,0)" font-family="Arial" font-size="12">50</text>
<text x="2" y="254" fill="rgb(0,0,0)" font-family="Arial" font-size="12">60</text>
<text x="2" y="202" fill="rgb(0,0,0)" font-family="Arial" font-size="12">70</text>
<text x="2" y="150" fill="rgb(0,0,0)" font-family="Arial" font-size="12">80</text>
<text x="2" y="98" fill="rgb(0,0,0)" font-family="Arial" font-size="12">90</text>
<text x="2" y="46" fill="rgb(0,0,0)" font-family="Arial" font-size="12">100</text>
<text x="325" y="30" fill="rgb(0,0,0)" font-family="Arial" font-size="12">N content across all bases</text>
<line x1="29" y1="560" x2="790" y2="560" stroke="rgb(0,0,0)" stroke-width="1"/>
<line x1="29" y1="560" x2="29" y2="40" stroke="rgb(0,0,0)" stroke-width="1"/>
<text x="336" y="595" fill="rgb(0,0,0)" font-family="Arial" font-size="12">Position in read (bp)</text>
<text x="34" y="575" fill="rgb(0,0,0)" font-family="Arial" font-size="12">1</text>
<rect width="18" height="520" x="47" y="40" style="fill:rgb(230,230,230);stroke:none"/>
<text x="52" y="575" fill="rgb(0,0,0)" font-family="Arial" font-size="12">2</text>
<text x="70" y="575" fill="rgb(0,0,0)" font-family="Arial" font-size="12">3</text>
<rect width="18" height="520" x="83" y="40" style="fill:rgb(230,230,230);stroke:none"/>
<text x="88" y="575" fill="rgb(0,0,0)" font-family="Arial" font-size="12">4</text>
<text x="106" y="575" fill="rgb(0,0,0)" font-family="Arial" font-size="12">5</text>
<rect width="18" height="520" x="119" y="40" style="fill:rgb(230,230,230);stroke:none"/>
<text x="124" y="575" fill="rgb(0,0,0)" font-family="Arial" font-size="12">6</text>
<text x="142" y="575" fill="rgb(0,0,0)" font-family="Arial" font-size="12">7</text>
<rect width="18" height="520" x="155" y="40" style="fill:rgb(230,230,230);stroke:none"/>
<text x="160" y="575" fill="rgb(0,0,0)" font-family="Arial" font-size="12">8</text>
<text x="178" y="575" fill="rgb(0,0,0)" font-family="Arial" font-size="12">9</text>
<rect width="18" height="520" x="191" y="40" style="fill:rgb(230,230,230);stroke:none"/>
<text x="192" y="575" fill="rgb(0,0,0)" font-family="Arial" font-size="12">10</text>
<rect width="18" height="520" x="227" y="40" style="fill:rgb(230,230,230);stroke:none"/>
<text x="228" y="575" fill="rgb(0,0,0)" font-family="Arial" font-size="12">12</text>
<rect width="18" height="520" x="263" y="40" style="fill:rgb(230,230,230);stroke:none"/>
<text x="264" y="575" fill="rgb(0,0,0)" font-family="Arial" font-size="12">14</text>
<rect width="18" height="520" x="299" y="40" style="fill:rgb(230,230,230);stroke:none"/>
<text x="300" y="575" fill="rgb(0,0,0)" font-family="Arial" font-size="12">16</text>
<rect width="18" height="520" x="335" y="40" style="fill:rgb(230,230,230);stroke:none"/>
<text x="336" y="575" fill="rgb(0,0,0)" font-family="Arial" font-size="12">18</text>
<rect width="18" height="520" x="371" y="40" style="fill:rgb(230,230,230);stroke:none"/>
<text x="372" y="575" fill="rgb(0,0,0)" font-family="Arial" font-size="12">20</text>
<rect width="18" height="520" x="407" y="40" style="fill:rgb(230,230,230);stroke:none"/>
<text x="408" y="575" fill="rgb(0,0,0)" font-family="Arial" font-size="12">22</text>
<rect width="18" height="520" x="443" y="40" style="fill:rgb(230,230,230);stroke:none"/>
<text x="444" y="575" fill="rgb(0,0,0)" font-family="Arial" font-size="12">24</text>
<rect width="18" height="520" x="479" y="40" style="fill:rgb(230,230,230);stroke:none"/>
<text x="480" y="575" fill="rgb(0,0,0)" font-family="Arial" font-size="12">26</text>
<rect width="18" height="520" x="515" y="40" style="fill:rgb(230,230,230);stroke:none"/>
<text x="516" y="575" fill="rgb(0,0,0)" font-family="Arial" font-size="12">28</text>
<rect width="18" height="520" x="551" y="40" style="fill:rgb(230,230,230);stroke:none"/>
<text x="552" y="575" fill="rgb(0,0,0)" font-family="Arial" font-size="12">30</text>
<rect width="18" height="520" x="587" y="40" style="fill:rgb(230,230,230);stroke:none"/>
<text x="588" y="575" fill="rgb(0,0,0)" font-family="Arial" font-size="12">32</text>
<rect width="18" height="520" x="623" y="40" style="fill:rgb(230,230,230);stroke:none"/>
<text x="624" y="575" fill="rgb(0,0,0)" font-family="Arial" font-size="12">34</text>
<rect width="18" height="520" x="659" y="40" style="fill:rgb(230,230,230);stroke:none"/>
<text x="660" y="575" fill="rgb(0,0,0)" font-family="Arial" font-size="12">36</text>
<rect width="18" height="520" x="695" y="40" style="fill:rgb(230,230,230);stroke:none"/>
<text x="696" y="575" fill="rgb(0,0,0)" font-family="Arial" font-size="12">38</text>
<rect width="18" height="520" x="731" y="40" style="fill:rgb(230,230,230);stroke:none"/>
<text x="732" y="575" fill="rgb(0,0,0)" font-family="Arial" font-size="12">40</text>
<rect width="18" height="520" x="767" y="40" style="fill:rgb(230,230,230);stroke:none"/>
<text x="768" y="575" fill="rgb(0,0,0)" font-family="Arial" font-size="12">42</text>
<line x1="29" y1="560" x2="790" y2="560" stroke="rgb(180,180,180)" stroke-width="1"/>
<line x1="29" y1="508" x2="790" y2="508" stroke="rgb(180,180,180)" stroke-width="1"/>
<line x1="29" y1="456" x2="790" y2="456" stroke="rgb(180,180,180)" stroke-width="1"/>
<line x1="29" y1="404" x2="790" y2="404" stroke="rgb(180,180,180)" stroke-width="1"/>
<line x1="29" y1="352" x2="790" y2="352" stroke="rgb(180,180,180)" stroke-width="1"/>
<line x1="29" y1="300" x2="790" y2="300" stroke="rgb(180,180,180)" stroke-width="1"/>
<line x1="29" y1="248" x2="790" y2="248" stroke="rgb(180,180,180)" stroke-width="1"/>
<line x1="29" y1="196" x2="790" y2="196" stroke="rgb(180,180,180)" stroke-width="1"/>
<line x1="29" y1="144" x2="790" y2="144" stroke="rgb(180,180,180)" stroke-width="1"/>
<line x1="29" y1="92" x2="790" y2="92" stroke="rgb(180,180,180)" stroke-width="1"/>
<line x1="29" y1="40" x2="790" y2="40" stroke="rgb(180,180,180)" stroke-width="1"/>
<line x1="38" y1="560" x2="56" y2="560" stroke="rgb(136,34,85)" stroke-width="1"/>
<line x1="56" y1="560" x2="74" y2="560" stroke="rgb(136,34,85)" stroke-width="1"/>
<line x1="74" y1="560" x2="92" y2="560" stroke="rgb(136,34,85)" stroke-width="1"/>
<line x1="92" y1="560" x2="110" y2="560" stroke="rgb(136,34,85)" stroke-width="1"/>
<line x1="110" y1="560" x2="128" y2="560" stroke="rgb(136,34,85)" stroke-width="1"/>
<line x1="128" y1="560" x2="146" y2="560" stroke="rgb(136,34,85)" stroke-width="1"/>
<line x1="146" y1="560" x2="164" y2="560" stroke="rgb(136,34,85)" stroke-width="1"/>
<line x1="164" y1="560" x2="182" y2="560" stroke="rgb(136,34,85)" stroke-width="1"/>
<line x1="182" y1="560" x2="200" y2="560" stroke="rgb(136,34,85)" stroke-width="1"/>
<line x1="200" y1="560" x2="218" y2="560" stroke="rgb(136,34,85)" stroke-width="1"/>
<line x1="218" y1="560" x2="236" y2="560" stroke="rgb(136,34,85)" stroke-width="1"/>
<line x1="236" y1="560" x2="254" y2="560" stroke="rgb(136,34,85)" stroke-width="1"/>
<line x1="254" y1="560" x2="272" y2="560" stroke="rgb(136,34,85)" stroke-width="1"/>
<line x1="272" y1="560" x2="290" y2="560" stroke="rgb(136,34,85)" stroke-width="1"/>
<line x1="290" y1="560" x2="308" y2="559" stroke="rgb(136,34,85)" stroke-width="1"/>
<line x1="308" y1="559" x2="326" y2="560" stroke="rgb(136,34,85)" stroke-width="1"/>
<line x1="326" y1="560" x2="344" y2="560" stroke="rgb(136,34,85)" stroke-width="1"/>
<line x1="344" y1="560" x2="362" y2="560" stroke="rgb(136,34,85)" stroke-width="1"/>
<line x1="362" y1="560" x2="380" y2="560" stroke="rgb(136,34,85)" stroke-width="1"/>
<line x1="380" y1="560" x2="398" y2="560" stroke="rgb(136,34,85)" stroke-width="1"/>
<line x1="398" y1="560" x2="416" y2="560" stroke="rgb(136,34,85)" stroke-width="1"/>
<line x1="416" y1="560" x2="434" y2="560" stroke="rgb(136,34,85)" stroke-width="1"/>
<line x1="434" y1="560" x2="452" y2="560" stroke="rgb(136,34,85)" stroke-width="1"/>
<line x1="452" y1="560" x2="470" y2="560" stroke="rgb(136,34,85)" stroke-width="1"/>
<line x1="470" y1="560" x2="488" y2="560" stroke="rgb(136,34,85)" stroke-width="1"/>
<line x1="488" y1="560" x2="506" y2="560" stroke="rgb(136,34,85)" stroke-width="1"/>
<line x1="506" y1="560" x2="524" y2="560" stroke="rgb(136,34,85)" stroke-width="1"/>
<line x1="524" y1="560" x2="542" y2="559" stroke="rgb(136,34,85)" stroke-width="1"/>
<line x1="542" y1="559" x2="560" y2="560" stroke="rgb(136,34,85)" stroke-width="1"/>
<line x1="560" y1="560" x2="578" y2="560" stroke="rgb(136,34,85)" stroke-width="1"/>
<line x1="578" y1="560" x2="596" y2="560" stroke="rgb(136,34,85)" stroke-width="1"/>
<line x1="596" y1="560" x2="614" y2="560" stroke="rgb(136,34,85)" stroke-width="1"/>
<line x1="614" y1="560" x2="632" y2="560" stroke="rgb(136,34,85)" stroke-width="1"/>
<line x1="632" y1="560" x2="650" y2="560" stroke="rgb(136,34,85)" stroke-width="1"/>
<line x1="650" y1="560" x2="668" y2="560" stroke="rgb(136,34,85)" stroke-width="1"/>
<line x1="668" y1="560" x2="686" y2="559" stroke="rgb(136,34,85)" stroke-width="1"/>
<line x1="686" y1="559" x2="704" y2="560" stroke="rgb(136,34,85)" stroke-width="1"/>
<line x1="704" y1="560" x2="722" y2="560" stroke="rgb(136,34,85)" stroke-width="1"/>
<line x1="722" y1="560" x2="740" y2="560" stroke="rgb(136,34,85)" stroke-width="1"/>
<line x1="740" y1="560" x2="758" y2="560" stroke="rgb(136,34,85)" stroke-width="1"/>
<line x1="758" y1="560" x2="776" y2="560" stroke="rgb(136,34,85)" stroke-width="1"/>
<rect width="28" height="23" x="762" y="40" style="fill:rgb(255,255,255);stroke:none"/>
<rect width="28" height="23" x="762" y="40" rx="0" ry="0" style="fill:none;stroke-width:1;stroke:rgb(192,192,192)"/>
<text x="765" y="55" fill="rgb(136,34,85)" font-family="Arial" font-size="12" font-weight="bold">%N</text>
</svg>
