<?xml version="1.0" standalone="no"?>
<!DOCTYPE svg PUBLIC "-//W3C//DTD SVG 1.1//EN" "http://www.w3.org/Graphics/SVG/1.1/DTD/svg11.dtd">
<svg width="800" height="600" version="1.1" xmlns="http://www.w3.org/2000/svg">
<rect width="800" height="600" x="0" y="0" style="fill:rgb(238,238,238);stroke:none"/>
<rect width="800" height="600" x="0" y="0" style="fill:rgb(255,255,255);stroke:none"/>
<text x="2" y="566" fill="rgb(0,0,0)" font-family="Arial" font-size="12">0</text>
<text x="2" y="514" fill="rgb(0,0,0)" font-family="Arial" font-size="12">10000</text>
<text x="2" y="461" fill="rgb(0,0,0)" font-family="Arial" font-size="12">20000</text>
<text x="2" y="408" fill="rgb(0,0,0)" font-family="Arial" font-size="12">30000</text>
<text x="2" y="355" fill="rgb(0,0,0)" font-family="Arial" font-size="12">40000</text>
<text x="2" y="302" fill="rgb(0,0,0)" font-family="Arial" font-size="12">50000</text>
<text x="2" y="249" fill="rgb(0,0,0)" font-family="Arial" font-size="12">60000</text>
<text x="2" y="196" fill="rgb(0,0,0)" font-family="Arial" font-size="12">70000</text>
<text x="2" y="143" fill="rgb(0,0,0)" font-family="Arial" font-size="12">80000</text>
<text x="2" y="91" fill="rgb(0,0,0)" font-family="Arial" font-size="12">90000</text>
<text x="278" y="30" fill="rgb(0,0,0)" font-family="Arial" font-size="12">Quality score distribution over all sequences</text>
<line x1="45" y1="560" x2="790" y2="560" stroke="rgb(0,0,0)" stroke-width="1"/>
<line x1="45" y1="560" x2="45" y2="40" stroke="rgb(0,0,0)" stroke-width="1"/>
<text x="281" y="595" fill="rgb(0,0,0)" font-family="Arial" font-size="12">Mean Sequence Quality (Phred Score)</text>
<text x="60" y="575" fill="rgb(0,0,0)" font-family="Arial" font-size="12">25</text>
<rect width="46" height="520" x="91" y="40" style="fill:rgb(230,230,230);stroke:none"/>
<text x="106" y="575" fill="rgb(0,0,0)" font-family="Arial" font-size="12">26</text>
<text x="152" y="575" fill="rgb(0,0,0)" font-family="Arial" font-size="12">27</text>
<rect width="46" height="520" x="183" y="40" style="fill:rgb(230,230,230);stroke:none"/>
<text x="198" y="575" fill="rgb(0,0,0)" font-family="Arial" font-size="12">28</text>
<text x="244" y="575" fill="rgb(0,0,0)" font-family="Arial" font-size="12">29</text>
<rect width="46" height="520" x="275" y="40" style="fill:rgb(230,230,230);stroke:none"/>
<text x="290" y="575" fill="rgb(0,0,0)" font-family="Arial" font-size="12">30</text>
<text x="336" y="575" fill="rgb(0,0,0)" font-family="Arial" font-size="12">31</text>
<rect width="46" height="520" x="367" y="40" style="fill:rgb(230,230,230);stroke:none"/>
<text x="382" y="575" fill="rgb(0,0,0)" font-family="Arial" font-size="12">32</text>
<text x="428" y="575" fill="rgb(0,0,0)" font-family="Arial" font-size="12">33</text>
<rect width="46" height="520" x="459" y="40" style="fill:rgb(230,230,230);stroke:none"/>
<text x="474" y="575" fill="rgb(0,0,0)" font-family="Arial" font-size="12">34</text>
<text x="520" y="575" fill="rgb(0,0,0)" font-family="Arial" font-size="12">35</text>
<rect width="46" height="520" x="551" y="40" style="fill:rgb(230,230,230);stroke:none"/>
<text x="566" y="575" fill="rgb(0,0,0)" font-family="Arial" font-size="12">36</text>
<text x="612" y="575" fill="rgb(0,0,0)" font-family="Arial" font-size="12">37</text>
<rect width="46" height="520" x="643" y="40" style="fill:rgb(230,230,230);stroke:none"/>
<text x="658" y="575" fill="rgb(0,0,0)" font-family="Arial" font-size="12">38</text>
<text x="704" y="575" fill="rgb(0,0,0)" font-family="Arial" font-size="12">39</text>
<rect width="46" height="520" x="735" y="40" style="fill:rgb(230,230,230);stroke:none"/>
<text x="750" y="575" fill="rgb(0,0,0)" font-family="Arial" font-size="12">40</text>
<line x1="45" y1="560" x2="790" y2="560" stroke="rgb(180,180,180)" stroke-width="1"/>
<line x1="45" y1="508" x2="790" y2="508" stroke="rgb(180,180,180)" stroke-width="1"/>
<line x1="45" y1="455" x2="790" y2="455" stroke="rgb(180,180,180)" stroke-width="1"/>
<line x1="45" y1="402" x2="790" y2="402" stroke="rgb(180,180,180)" stroke-width="1"/>
<line x1="45" y1="349" x2="790" y2="349" stroke="rgb(180,180,180)" stroke-width="1"/>
<line x1="45" y1="296" x2="790" y2="296" stroke="rgb(180,180,180)" stroke-width="1"/>
<line x1="45" y1="243" x2="790" y2="243" stroke="rgb(180,180,180)" stroke-width="1"/>
<line x1="45" y1="190" x2="790" y2="190" stroke="rgb(180,180,180)" stroke-width="1"/>
<line x1="45" y1="137" x2="790" y2="137" stroke="rgb(180,180,180)" stroke-width="1"/>
<line x1="45" y1="85" x2="790" y2="85" stroke="rgb(180,180,180)" stroke-width="1"/>
<line x1="68" y1="560" x2="114" y2="560" stroke="rgb(136,34,85)" stroke-width="1"/>
<line x1="114" y1="560" x2="160" y2="558" stroke="rgb(136,34,85)" stroke-width="1"/>
<line x1="160" y1="558" x2="206" y2="553" stroke="rgb(136,34,85)" stroke-width="1"/>
<line x1="206" y1="553" x2="252" y2="540" stroke="rgb(136,34,85)" stroke-width="1"/>
<line x1="252" y1="540" x2="298" y2="517" stroke="rgb(136,34,85)" stroke-width="1"/>
<line x1="298" y1="517" x2="344" y2="476" stroke="rgb(136,34,85)" stroke-width="1"/>
<line x1="344" y1="476" x2="390" y2="410" stroke="rgb(136,34,85)" stroke-width="1"/>
<line x1="390" y1="410" x2="436" y2="307" stroke="rgb(136,34,85)" stroke-width="1"/>
<line x1="436" y1="307" x2="482" y2="177" stroke="rgb(136,34,85)" stroke-width="1"/>
<line x1="482" y1="177" x2="528" y2="70" stroke="rgb(136,34,85)" stroke-width="1"/>
<line x1="528" y1="70" x2="574" y2="40" stroke="rgb(136,34,85)" stroke-width="1"/>
<line x1="574" y1="40" x2="620" y2="156" stroke="rgb(136,34,85)" stroke-width="1"/>
<line x1="620" y1="156" x2="666" y2="374" stroke="rgb(136,34,85)" stroke-width="1"/>
<line x1="666" y1="374" x2="712" y2="522" stroke="rgb(136,34,85)" stroke-width="1"/>
<line x1="712" y1="522" x2="758" y2="557" stroke="rgb(136,34,85)" stroke-width="1"/>
<rect width="183" height="23" x="607" y="40" style="fill:rgb(255,255,255);stroke:none"/>
<rect width="183" height="23" x="607" y="40" rx="0" ry="0" style="fill:none;stroke-width:1;stroke:rgb(192,192,192)"/>
<text x="610" y="55" fill="rgb(136,34,85)" font-family="Arial" font-size="12" font-weight="bold">Average Quality per read</text>
</svg>
