<?xml version="1.0" standalone="no"?>
<!DOCTYPE svg PUBLIC "-//W3C//DTD SVG 1.1//EN" "http://www.w3.org/Graphics/SVG/1.1/DTD/svg11.dtd">
<svg width="800" height="600" version="1.1" xmlns="http://www.w3.org/2000/svg">
<rect width="800" height="600" x="0" y="0" style="fill:rgb(238,238,238);stroke:none"/>
<rect width="800" height="600" x="0" y="0" style="fill:rgb(255,255,255);stroke:none"/>
<text x="2" y="566" fill="rgb(0,0,0)" font-family="Arial" font-size="12">0</text>
<text x="2" y="540" fill="rgb(0,0,0)" font-family="Arial" font-size="12">2</text>
<text x="2" y="514" fill="rgb(0,0,0)" font-family="Arial" font-size="12">4</text>
<text x="2" y="488" fill="rgb(0,0,0)" font-family="Arial" font-size="12">6</text>
<text x="2" y="462" fill="rgb(0,0,0)" font-family="Arial" font-size="12">8</text>
<text x="2" y="436" fill="rgb(0,0,0)" font-family="Arial" font-size="12">10</text>
<text x="2" y="410" fill="rgb(0,0,0)" font-family="Arial" font-size="12">12</text>
<text x="2" y="384" fill="rgb(0,0,0)" font-family="Arial" font-size="12">14</text>
<text x="2" y="358" fill="rgb(0,0,0)" font-family="Arial" font-size="12">16</text>
<text x="2" y="332" fill="rgb(0,0,0)" font-family="Arial" font-size="12">18</text>
<text x="2" y="306" fill="rgb(0,0,0)" font-family="Arial" font-size="12">20</text>
<text x="2" y="280" fill="rgb(0,0,0)" font-family="Arial" font-size="12">22</text>
<text x="2" y="254" fill="rgb(0,0,0)" font-family="Arial" font-size="12">24</text>
<text x="2" y="228" fill="rgb(0,0,0)" font-family="Arial" font-size="12">26</text>
<text x="2" y="202" fill="rgb(0,0,0)" font-family="Arial" font-size="12">28</text>
<text x="2" y="176" fill="rgb(0,0,0)" font-family="Arial" font-size="12">30</text>
<text x="2" y="150" fill="rgb(0,0,0)" font-family="Arial" font-size="12">32</text>
<text x="2" y="124" fill="rgb(0,0,0)" font-family="Arial" font-size="12">34</text>
<text x="2" y="98" fill="rgb(0,0,0)" font-family="Arial" font-size="12">36</text>
<text x="2" y="72" fill="rgb(0,0,0)" font-family="Arial" font-size="12">38</text>
<text x="2" y="46" fill="rgb(0,0,0)" font-family="Arial" font-size="12">40</text>
<text x="206" y="30" fill="rgb(0,0,0)" font-family="Arial" font-size="12">Quality scores across all bases (Sanger / Illumina 1.9 encoding)</text>
<rect width="18" height="260" x="21" y="300" style="fill:rgb(230,175,175);stroke:none"/>
<rect width="18" height="104" x="21" y="196" style="fill:rgb(230,215,175);stroke:none"/>
<rect width="18" height="156" x="21" y="40" style="fill:rgb(175,230,175);stroke:none"/>
<text x="26" y="575" fill="rgb(0,0,0)" font-family="Arial" font-size="12">1</text>
<rect width="18" height="260" x="39" y="300" style="fill:rgb(230,195,195);stroke:none"/>
<rect width="18" height="104" x="39" y="196" style="fill:rgb(230,220,195);stroke:none"/>
<rect width="18" height="156" x="39" y="40" style="fill:rgb(195,230,195);stroke:none"/>
<text x="44" y="575" fill="rgb(0,0,0)" font-family="Arial" font-size="12">2</text>
<rect width="18" height="260" x="57" y="300" style="fill:rgb(230,175,175);stroke:none"/>
<rect width="18" height="104" x="57" y="196" style="fill:rgb(230,215,175);stroke:none"/>
<rect width="18" height="156" x="57" y="40" style="fill:rgb(175,230,175);stroke:none"/>
<text x="62" y="575" fill="rgb(0,0,0)" font-family="Arial" font-size="12">3</text>
<rect width="18" height="260" x="75" y="300" style="fill:rgb(230,195,195);stroke:none"/>
<rect width="18" height="104" x="75" y="196" style="fill:rgb(230,220,195);stroke:none"/>
<rect width="18" height="156" x="75" y="40" style="fill:rgb(195,230,195);stroke:none"/>
<text x="80" y="575" fill="rgb(0,0,0)" font-family="Arial" font-size="12">4</text>
<rect width="18" height="260" x="93" y="300" style="fill:rgb(230,175,175);stroke:none"/>
<rect width="18" height="104" x="93" y="196" style="fill:rgb(230,215,175);stroke:none"/>
<rect width="18" height="156" x="93" y="40" style="fill:rgb(175,230,175);stroke:none"/>
<text x="98" y="575" fill="rgb(0,0,0)" font-family="Arial" font-size="12">5</text>
<rect width="18" height="260" x="111" y="300" style="fill:rgb(230,195,195);stroke:none"/>
<rect width="18" height="104" x="111" y="196" style="fill:rgb(230,220,195);stroke:none"/>
<rect width="18" height="156" x="111" y="40" style="fill:rgb(195,230,195);stroke:none"/>
<text x="116" y="575" fill="rgb(0,0,0)" font-family="Arial" font-size="12">6</text>
<rect width="18" height="260" x="129" y="300" style="fill:rgb(230,175,175);stroke:none"/>
<rect width="18" height="104" x="129" y="196" style="fill:rgb(230,215,175);stroke:none"/>
<rect width="18" height="156" x="129" y="40" style="fill:rgb(175,230,175);stroke:none"/>
<text x="134" y="575" fill="rgb(0,0,0)" font-family="Arial" font-size="12">7</text>
<rect width="18" height="260" x="147" y="300" style="fill:rgb(230,195,195);stroke:none"/>
<rect width="18" height="104" x="147" y="196" style="fill:rgb(230,220,195);stroke:none"/>
<rect width="18" height="156" x="147" y="40" style="fill:rgb(195,230,195);stroke:none"/>
<text x="152" y="575" fill="rgb(0,0,0)" font-family="Arial" font-size="12">8</text>
<rect width="18" height="260" x="165" y="300" style="fill:rgb(230,175,175);stroke:none"/>
<rect width="18" height="104" x="165" y="196" style="fill:rgb(230,215,175);stroke:none"/>
<rect width="18" height="156" x="165" y="40" style="fill:rgb(175,230,175);stroke:none"/>
<text x="170" y="575" fill="rgb(0,0,0)" font-family="Arial" font-size="12">9</text>
<rect width="18" height="260" x="183" y="300" style="fill:rgb(230,195,195);stroke:none"/>
<rect width="18" height="104" x="183" y="196" style="fill:rgb(230,220,195);stroke:none"/>
<rect width="18" height="156" x="183" y="40" style="fill:rgb(195,230,195);stroke:none"/>
<text x="184" y="575" fill="rgb(0,0,0)" font-family="Arial" font-size="12">10</text>
<rect width="18" height="260" x="201" y="300" style="fill:rgb(230,175,175);stroke:none"/>
<rect width="18" height="104" x="201" y="196" style="fill:rgb(230,215,175);stroke:none"/>
<rect width="18" height="156" x="201" y="40" style="fill:rgb(175,230,175);stroke:none"/>
<rect width="18" height="260" x="219" y="300" style="fill:rgb(230,195,195);stroke:none"/>
<rect width="18" height="104" x="219" y="196" style="fill:rgb(230,220,195);stroke:none"/>
<rect width="18" height="156" x="219" y="40" style="fill:rgb(195,230,195);stroke:none"/>
<text x="220" y="575" fill="rgb(0,0,0)" font-family="Arial" font-size="12">12</text>
<rect width="18" height="260" x="237" y="300" style="fill:rgb(230,175,175);stroke:none"/>
<rect width="18" height="104" x="237" y="196" style="fill:rgb(230,215,175);stroke:none"/>
<rect width="18" height="156" x="237" y="40" style="fill:rgb(175,230,175);stroke:none"/>
<rect width="18" height="260" x="255" y="300" style="fill:rgb(230,195,195);stroke:none"/>
<rect width="18" height="104" x="255" y="196" style="fill:rgb(230,220,195);stroke:none"/>
<rect width="18" height="156" x="255" y="40" style="fill:rgb(195,230,195);stroke:none"/>
<text x="256" y="575" fill="rgb(0,0,0)" font-family="Arial" font-size="12">14</text>
<rect width="18" height="260" x="273" y="300" style="fill:rgb(230,175,175);stroke:none"/>
<rect width="18" height="104" x="273" y="196" style="fill:rgb(230,215,175);stroke:none"/>
<rect width="18" height="156" x="273" y="40" style="fill:rgb(175,230,175);stroke:none"/>
<rect width="18" height="260" x="291" y="300" style="fill:rgb(230,195,195);stroke:none"/>
<rect width="18" height="104" x="291" y="196" style="fill:rgb(230,220,195);stroke:none"/>
<rect width="18" height="156" x="291" y="40" style="fill:rgb(195,230,195);stroke:none"/>
<text x="292" y="575" fill="rgb(0,0,0)" font-family="Arial" font-size="12">16</text>
<rect width="18" height="260" x="309" y="300" style="fill:rgb(230,175,175);stroke:none"/>
<rect width="18" height="104" x="309" y="196" style="fill:rgb(230,215,175);stroke:none"/>
<rect width="18" height="156" x="309" y="40" style="fill:rgb(175,230,175);stroke:none"/>
<rect width="18" height="260" x="327" y="300" style="fill:rgb(230,195,195);stroke:none"/>
<rect width="18" height="104" x="327" y="196" style="fill:rgb(230,220,195);stroke:none"/>
<rect width="18" height="156" x="327" y="40" style="fill:rgb(195,230,195);stroke:none"/>
<text x="328" y="575" fill="rgb(0,0,0)" font-family="Arial" font-size="12">18</text>
<rect width="18" height="260" x="345" y="300" style="fill:rgb(230,175,175);stroke:none"/>
<rect width="18" height="104" x="345" y="196" style="fill:rgb(230,215,175);stroke:none"/>
<rect width="18" height="156" x="345" y="40" style="fill:rgb(175,230,175);stroke:none"/>
<rect width="18" height="260" x="363" y="300" style="fill:rgb(230,195,195);stroke:none"/>
<rect width="18" height="104" x="363" y="196" style="fill:rgb(230,220,195);stroke:none"/>
<rect width="18" height="156" x="363" y="40" style="fill:rgb(195,230,195);stroke:none"/>
<text x="364" y="575" fill="rgb(0,0,0)" font-family="Arial" font-size="12">20</text>
<rect width="18" height="260" x="381" y="300" style="fill:rgb(230,175,175);stroke:none"/>
<rect width="18" height="104" x="381" y="196" style="fill:rgb(230,215,175);stroke:none"/>
<rect width="18" height="156" x="381" y="40" style="fill:rgb(175,230,175);stroke:none"/>
<rect width="18" height="260" x="399" y="300" style="fill:rgb(230,195,195);stroke:none"/>
<rect width="18" height="104" x="399" y="196" style="fill:rgb(230,220,195);stroke:none"/>
<rect width="18" height="156" x="399" y="40" style="fill:rgb(195,230,195);stroke:none"/>
<text x="400" y="575" fill="rgb(0,0,0)" font-family="Arial" font-size="12">22</text>
<rect width="18" height="260" x="417" y="300" style="fill:rgb(230,175,175);stroke:none"/>
<rect width="18" height="104" x="417" y="196" style="fill:rgb(230,215,175);stroke:none"/>
<rect width="18" height="156" x="417" y="40" style="fill:rgb(175,230,175);stroke:none"/>
<rect width="18" height="260" x="435" y="300" style="fill:rgb(230,195,195);stroke:none"/>
<rect width="18" height="104" x="435" y="196" style="fill:rgb(230,220,195);stroke:none"/>
<rect width="18" height="156" x="435" y="40" style="fill:rgb(195,230,195);stroke:none"/>
<text x="436" y="575" fill="rgb(0,0,0)" font-family="Arial" font-size="12">24</text>
<rect width="18" height="260" x="453" y="300" style="fill:rgb(230,175,175);stroke:none"/>
<rect width="18" height="104" x="453" y="196" style="fill:rgb(230,215,175);stroke:none"/>
<rect width="18" height="156" x="453" y="40" style="fill:rgb(175,230,175);stroke:none"/>
<rect width="18" height="260" x="471" y="300" style="fill:rgb(230,195,195);stroke:none"/>
<rect width="18" height="104" x="471" y="196" style="fill:rgb(230,220,195);stroke:none"/>
<rect width="18" height="156" x="471" y="40" style="fill:rgb(195,230,195);stroke:none"/>
<text x="472" y="575" fill="rgb(0,0,0)" font-family="Arial" font-size="12">26</text>
<rect width="18" height="260" x="489" y="300" style="fill:rgb(230,175,175);stroke:none"/>
<rect width="18" height="104" x="489" y="196" style="fill:rgb(230,215,175);stroke:none"/>
<rect width="18" height="156" x="489" y="40" style="fill:rgb(175,230,175);stroke:none"/>
<rect width="18" height="260" x="507" y="300" style="fill:rgb(230,195,195);stroke:none"/>
<rect width="18" height="104" x="507" y="196" style="fill:rgb(230,220,195);stroke:none"/>
<rect width="18" height="156" x="507" y="40" style="fill:rgb(195,230,195);stroke:none"/>
<text x="508" y="575" fill="rgb(0,0,0)" font-family="Arial" font-size="12">28</text>
<rect width="18" height="260" x="525" y="300" style="fill:rgb(230,175,175);stroke:none"/>
<rect width="18" height="104" x="525" y="196" style="fill:rgb(230,215,175);stroke:none"/>
<rect width="18" height="156" x="525" y="40" style="fill:rgb(175,230,175);stroke:none"/>
<rect width="18" height="260" x="543" y="300" style="fill:rgb(230,195,195);stroke:none"/>
<rect width="18" height="104" x="543" y="196" style="fill:rgb(230,220,195);stroke:none"/>
<rect width="18" height="156" x="543" y="40" style="fill:rgb(195,230,195);stroke:none"/>
<text x="544" y="575" fill="rgb(0,0,0)" font-family="Arial" font-size="12">30</text>
<rect width="18" height="260" x="561" y="300" style="fill:rgb(230,175,175);stroke:none"/>
<rect width="18" height="104" x="561" y="196" style="fill:rgb(230,215,175);stroke:none"/>
<rect width="18" height="156" x="561" y="40" style="fill:rgb(175,230,175);stroke:none"/>
<rect width="18" height="260" x="579" y="300" style="fill:rgb(230,195,195);stroke:none"/>
<rect width="18" height="104" x="579" y="196" style="fill:rgb(230,220,195);stroke:none"/>
<rect width="18" height="156" x="579" y="40" style="fill:rgb(195,230,195);stroke:none"/>
<text x="580" y="575" fill="rgb(0,0,0)" font-family="Arial" font-size="12">32</text>
<rect width="18" height="260" x="597" y="300" style="fill:rgb(230,175,175);stroke:none"/>
<rect width="18" height="104" x="597" y="196" style="fill:rgb(230,215,175);stroke:none"/>
<rect width="18" height="156" x="597" y="40" style="fill:rgb(175,230,175);stroke:none"/>
<rect width="18" height="260" x="615" y="300" style="fill:rgb(230,195,195);stroke:none"/>
<rect width="18" height="104" x="615" y="196" style="fill:rgb(230,220,195);stroke:none"/>
<rect width="18" height="156" x="615" y="40" style="fill:rgb(195,230,195);stroke:none"/>
<text x="616" y="575" fill="rgb(0,0,0)" font-family="Arial" font-size="12">34</text>
<rect width="18" height="260" x="633" y="300" style="fill:rgb(230,175,175);stroke:none"/>
<rect width="18" height="104" x="633" y="196" style="fill:rgb(230,215,175);stroke:none"/>
<rect width="18" height="156" x="633" y="40" style="fill:rgb(175,230,175);stroke:none"/>
<rect width="18" height="260" x="651" y="300" style="fill:rgb(230,195,195);stroke:none"/>
<rect width="18" height="104" x="651" y="196" style="fill:rgb(230,220,195);stroke:none"/>
<rect width="18" height="156" x="651" y="40" style="fill:rgb(195,230,195);stroke:none"/>
<text x="652" y="575" fill="rgb(0,0,0)" font-family="Arial" font-size="12">36</text>
<rect width="18" height="260" x="669" y="300" style="fill:rgb(230,175,175);stroke:none"/>
<rect width="18" height="104" x="669" y="196" style="fill:rgb(230,215,175);stroke:none"/>
<rect width="18" height="156" x="669" y="40" style="fill:rgb(175,230,175);stroke:none"/>
<rect width="18" height="260" x="687" y="300" style="fill:rgb(230,195,195);stroke:none"/>
<rect width="18" height="104" x="687" y="196" style="fill:rgb(230,220,195);stroke:none"/>
<rect width="18" height="156" x="687" y="40" style="fill:rgb(195,230,195);stroke:none"/>
<text x="688" y="575" fill="rgb(0,0,0)" font-family="Arial" font-size="12">38</text>
<rect width="18" height="260" x="705" y="300" style="fill:rgb(230,175,175);stroke:none"/>
<rect width="18" height="104" x="705" y="196" style="fill:rgb(230,215,175);stroke:none"/>
<rect width="18" height="156" x="705" y="40" style="fill:rgb(175,230,175);stroke:none"/>
<rect width="18" height="260" x="723" y="300" style="fill:rgb(230,195,195);stroke:none"/>
<rect width="18" height="104" x="723" y="196" style="fill:rgb(230,220,195);stroke:none"/>
<rect width="18" height="156" x="723" y="40" style="fill:rgb(195,230,195);stroke:none"/>
<text x="724" y="575" fill="rgb(0,0,0)" font-family="Arial" font-size="12">40</text>
<rect width="18" height="260" x="741" y="300" style="fill:rgb(230,175,175);stroke:none"/>
<rect width="18" height="104" x="741" y="196" style="fill:rgb(230,215,175);stroke:none"/>
<rect width="18" height="156" x="741" y="40" style="fill:rgb(175,230,175);stroke:none"/>
<rect width="18" height="260" x="759" y="300" style="fill:rgb(230,195,195);stroke:none"/>
<rect width="18" height="104" x="759" y="196" style="fill:rgb(230,220,195);stroke:none"/>
<rect width="18" height="156" x="759" y="40" style="fill:rgb(195,230,195);stroke:none"/>
<text x="760" y="575" fill="rgb(0,0,0)" font-family="Arial" font-size="12">42</text>
<line x1="21" y1="560" x2="790" y2="560" stroke="rgb(0,0,0)" stroke-width="1"/>
<line x1="21" y1="560" x2="21" y2="40" stroke="rgb(0,0,0)" stroke-width="1"/>
<text x="336" y="595" fill="rgb(0,0,0)" font-family="Arial" font-size="12">Position in read (bp)</text>
<rect width="14" height="0" x="23" y="40" style="fill:rgb(240,240,0);stroke:none"/>
<rect width="14" height="0" x="23" y="40" rx="0" ry="0" style="fill:none;stroke-width:1;stroke:rgb(0,0,0)"/>
<line x1="30" y1="40" x2="30" y2="40" stroke="rgb(0,0,0)" stroke-width="1"/>
<line x1="23" y1="40" x2="37" y2="40" stroke="rgb(0,0,0)" stroke-width="1"/>
<line x1="30" y1="40" x2="30" y2="40" stroke="rgb(0,0,0)" stroke-width="1"/>
<line x1="23" y1="40" x2="37" y2="40" stroke="rgb(0,0,0)" stroke-width="1"/>
<line x1="23" y1="40" x2="37" y2="40" stroke="rgb(200,0,0)" stroke-width="1"/>
<rect width="14" height="0" x="41" y="40" style="fill:rgb(240,240,0);stroke:none"/>
<rect width="14" height="0" x="41" y="40" rx="0" ry="0" style="fill:none;stroke-width:1;stroke:rgb(0,0,0)"/>
<line x1="48" y1="40" x2="48" y2="40" stroke="rgb(0,0,0)" stroke-width="1"/>
<line x1="41" y1="40" x2="55" y2="40" stroke="rgb(0,0,0)" stroke-width="1"/>
<line x1="48" y1="40" x2="48" y2="40" stroke="rgb(0,0,0)" stroke-width="1"/>
<line x1="41" y1="40" x2="55" y2="40" stroke="rgb(0,0,0)" stroke-width="1"/>
<line x1="41" y1="40" x2="55" y2="40" stroke="rgb(200,0,0)" stroke-width="1"/>
<rect width="14" height="0" x="59" y="40" style="fill:rgb(240,240,0);stroke:none"/>
<rect width="14" height="0" x="59" y="40" rx="0" ry="0" style="fill:none;stroke-width:1;stroke:rgb(0,0,0)"/>
<line x1="66" y1="40" x2="66" y2="40" stroke="rgb(0,0,0)" stroke-width="1"/>
<line x1="59" y1="40" x2="73" y2="40" stroke="rgb(0,0,0)" stroke-width="1"/>
<line x1="66" y1="40" x2="66" y2="40" stroke="rgb(0,0,0)" stroke-width="1"/>
<line x1="59" y1="40" x2="73" y2="40" stroke="rgb(0,0,0)" stroke-width="1"/>
<line x1="59" y1="40" x2="73" y2="40" stroke="rgb(200,0,0)" stroke-width="1"/>
<rect width="14" height="0" x="77" y="40" style="fill:rgb(240,240,0);stroke:none"/>
<rect width="14" height="0" x="77" y="40" rx="0" ry="0" style="fill:none;stroke-width:1;stroke:rgb(0,0,0)"/>
<line x1="84" y1="40" x2="84" y2="40" stroke="rgb(0,0,0)" stroke-width="1"/>
<line x1="77" y1="40" x2="91" y2="40" stroke="rgb(0,0,0)" stroke-width="1"/>
<line x1="84" y1="40" x2="84" y2="40" stroke="rgb(0,0,0)" stroke-width="1"/>
<line x1="77" y1="40" x2="91" y2="40" stroke="rgb(0,0,0)" stroke-width="1"/>
<line x1="77" y1="40" x2="91" y2="40" stroke="rgb(200,0,0)" stroke-width="1"/>
<rect width="14" height="0" x="95" y="40" style="fill:rgb(240,240,0);stroke:none"/>
<rect width="14" height="0" x="95" y="40" rx="0" ry="0" style="fill:none;stroke-width:1;stroke:rgb(0,0,0)"/>
<line x1="102" y1="40" x2="102" y2="40" stroke="rgb(0,0,0)" stroke-width="1"/>
<line x1="95" y1="40" x2="109" y2="40" stroke="rgb(0,0,0)" stroke-width="1"/>
<line x1="102" y1="40" x2="102" y2="40" stroke="rgb(0,0,0)" stroke-width="1"/>
<line x1="95" y1="40" x2="109" y2="40" stroke="rgb(0,0,0)" stroke-width="1"/>
<line x1="95" y1="40" x2="109" y2="40" stroke="rgb(200,0,0)" stroke-width="1"/>
<rect width="14" height="0" x="113" y="40" style="fill:rgb(240,240,0);stroke:none"/>
<rect width="14" height="0" x="113" y="40" rx="0" ry="0" style="fill:none;stroke-width:1;stroke:rgb(0,0,0)"/>
<line x1="120" y1="40" x2="120" y2="40" stroke="rgb(0,0,0)" stroke-width="1"/>
<line x1="113" y1="40" x2="127" y2="40" stroke="rgb(0,0,0)" stroke-width="1"/>
<line x1="120" y1="40" x2="120" y2="40" stroke="rgb(0,0,0)" stroke-width="1"/>
<line x1="113" y1="40" x2="127" y2="40" stroke="rgb(0,0,0)" stroke-width="1"/>
<line x1="113" y1="40" x2="127" y2="40" stroke="rgb(200,0,0)" stroke-width="1"/>
<rect width="14" height="0" x="131" y="40" style="fill:rgb(240,240,0);stroke:none"/>
<rect width="14" height="0" x="131" y="40" rx="0" ry="0" style="fill:none;stroke-width:1;stroke:rgb(0,0,0)"/>
<line x1="138" y1="40" x2="138" y2="40" stroke="rgb(0,0,0)" stroke-width="1"/>
<line x1="131" y1="40" x2="145" y2="40" stroke="rgb(0,0,0)" stroke-width="1"/>
<line x1="138" y1="40" x2="138" y2="40" stroke="rgb(0,0,0)" stroke-width="1"/>
<line x1="131" y1="40" x2="145" y2="40" stroke="rgb(0,0,0)" stroke-width="1"/>
<line x1="131" y1="40" x2="145" y2="40" stroke="rgb(200,0,0)" stroke-width="1"/>
<rect width="14" height="0" x="149" y="40" style="fill:rgb(240,240,0);stroke:none"/>
<rect width="14" height="0" x="149" y="40" rx="0" ry="0" style="fill:none;stroke-width:1;stroke:rgb(0,0,0)"/>
<line x1="156" y1="40" x2="156" y2="40" stroke="rgb(0,0,0)" stroke-width="1"/>
<line x1="149" y1="40" x2="163" y2="40" stroke="rgb(0,0,0)" stroke-width="1"/>
<line x1="156" y1="40" x2="156" y2="40" stroke="rgb(0,0,0)" stroke-width="1"/>
<line x1="149" y1="40" x2="163" y2="40" stroke="rgb(0,0,0)" stroke-width="1"/>
<line x1="149" y1="40" x2="163" y2="40" stroke="rgb(200,0,0)" stroke-width="1"/>
<rect width="14" height="0" x="167" y="40" style="fill:rgb(240,240,0);stroke:none"/>
<rect width="14" height="0" x="167" y="40" rx="0" ry="0" style="fill:none;stroke-width:1;stroke:rgb(0,0,0)"/>
<line x1="174" y1="40" x2="174" y2="40" stroke="rgb(0,0,0)" stroke-width="1"/>
<line x1="167" y1="40" x2="181" y2="40" stroke="rgb(0,0,0)" stroke-width="1"/>
<line x1="174" y1="40" x2="174" y2="40" stroke="rgb(0,0,0)" stroke-width="1"/>
<line x1="167" y1="40" x2="181" y2="40" stroke="rgb(0,0,0)" stroke-width="1"/>
<line x1="167" y1="40" x2="181" y2="40" stroke="rgb(200,0,0)" stroke-width="1"/>
<rect width="14" height="0" x="185" y="40" style="fill:rgb(240,240,0);stroke:none"/>
<rect width="14" height="0" x="185" y="40" rx="0" ry="0" style="fill:none;stroke-width:1;stroke:rgb(0,0,0)"/>
<line x1="192" y1="40" x2="192" y2="40" stroke="rgb(0,0,0)" stroke-width="1"/>
<line x1="185" y1="40" x2="199" y2="40" stroke="rgb(0,0,0)" stroke-width="1"/>
<line x1="192" y1="40" x2="192" y2="40" stroke="rgb(0,0,0)" stroke-width="1"/>
<line x1="185" y1="40" x2="199" y2="40" stroke="rgb(0,0,0)" stroke-width="1"/>
<line x1="185" y1="40" x2="199" y2="40" stroke="rgb(200,0,0)" stroke-width="1"/>
<rect width="14" height="0" x="203" y="40" style="fill:rgb(240,240,0);stroke:none"/>
<rect width="14" height="0" x="203" y="40" rx="0" ry="0" style="fill:none;stroke-width:1;stroke:rgb(0,0,0)"/>
<line x1="210" y1="40" x2="210" y2="40" stroke="rgb(0,0,0)" stroke-width="1"/>
<line x1="203" y1="40" x2="217" y2="40" stroke="rgb(0,0,0)" stroke-width="1"/>
<line x1="210" y1="40" x2="210" y2="40" stroke="rgb(0,0,0)" stroke-width="1"/>
<line x1="203" y1="40" x2="217" y2="40" stroke="rgb(0,0,0)" stroke-width="1"/>
<line x1="203" y1="40" x2="217" y2="40" stroke="rgb(200,0,0)" stroke-width="1"/>
<rect width="14" height="0" x="221" y="40" style="fill:rgb(240,240,0);stroke:none"/>
<rect width="14" height="0" x="221" y="40" rx="0" ry="0" style="fill:none;stroke-width:1;stroke:rgb(0,0,0)"/>
<line x1="228" y1="40" x2="228" y2="40" stroke="rgb(0,0,0)" stroke-width="1"/>
<line x1="221" y1="40" x2="235" y2="40" stroke="rgb(0,0,0)" stroke-width="1"/>
<line x1="228" y1="40" x2="228" y2="40" stroke="rgb(0,0,0)" stroke-width="1"/>
<line x1="221" y1="40" x2="235" y2="40" stroke="rgb(0,0,0)" stroke-width="1"/>
<line x1="221" y1="40" x2="235" y2="40" stroke="rgb(200,0,0)" stroke-width="1"/>
<rect width="14" height="0" x="239" y="40" style="fill:rgb(240,240,0);stroke:none"/>
<rect width="14" height="0" x="239" y="40" rx="0" ry="0" style="fill:none;stroke-width:1;stroke:rgb(0,0,0)"/>
<line x1="246" y1="40" x2="246" y2="40" stroke="rgb(0,0,0)" stroke-width="1"/>
<line x1="239" y1="40" x2="253" y2="40" stroke="rgb(0,0,0)" stroke-width="1"/>
<line x1="246" y1="40" x2="246" y2="40" stroke="rgb(0,0,0)" stroke-width="1"/>
<line x1="239" y1="40" x2="253" y2="40" stroke="rgb(0,0,0)" stroke-width="1"/>
<line x1="239" y1="40" x2="253" y2="40" stroke="rgb(200,0,0)" stroke-width="1"/>
<rect width="14" height="0" x="257" y="40" style="fill:rgb(240,240,0);stroke:none"/>
<rect width="14" height="0" x="257" y="40" rx="0" ry="0" style="fill:none;stroke-width:1;stroke:rgb(0,0,0)"/>
<line x1="264" y1="40" x2="264" y2="40" stroke="rgb(0,0,0)" stroke-width="1"/>
<line x1="257" y1="40" x2="271" y2="40" stroke="rgb(0,0,0)" stroke-width="1"/>
<line x1="264" y1="40" x2="264" y2="40" stroke="rgb(0,0,0)" stroke-width="1"/>
<line x1="257" y1="40" x2="271" y2="40" stroke="rgb(0,0,0)" stroke-width="1"/>
<line x1="257" y1="40" x2="271" y2="40" stroke="rgb(200,0,0)" stroke-width="1"/>
<rect width="14" height="0" x="275" y="40" style="fill:rgb(240,240,0);stroke:none"/>
<rect width="14" height="0" x="275" y="40" rx="0" ry="0" style="fill:none;stroke-width:1;stroke:rgb(0,0,0)"/>
<line x1="282" y1="40" x2="282" y2="40" stroke="rgb(0,0,0)" stroke-width="1"/>
<line x1="275" y1="40" x2="289" y2="40" stroke="rgb(0,0,0)" stroke-width="1"/>
<line x1="282" y1="92" x2="282" y2="40" stroke="rgb(0,0,0)" stroke-width="1"/>
<line x1="275" y1="92" x2="289" y2="92" stroke="rgb(0,0,0)" stroke-width="1"/>
<line x1="275" y1="40" x2="289" y2="40" stroke="rgb(200,0,0)" stroke-width="1"/>
<rect width="14" height="0" x="293" y="40" style="fill:rgb(240,240,0);stroke:none"/>
<rect width="14" height="0" x="293" y="40" rx="0" ry="0" style="fill:none;stroke-width:1;stroke:rgb(0,0,0)"/>
<line x1="300" y1="40" x2="300" y2="40" stroke="rgb(0,0,0)" stroke-width="1"/>
<line x1="293" y1="40" x2="307" y2="40" stroke="rgb(0,0,0)" stroke-width="1"/>
<line x1="300" y1="105" x2="300" y2="40" stroke="rgb(0,0,0)" stroke-width="1"/>
<line x1="293" y1="105" x2="307" y2="105" stroke="rgb(0,0,0)" stroke-width="1"/>
<line x1="293" y1="40" x2="307" y2="40" stroke="rgb(200,0,0)" stroke-width="1"/>
<rect width="14" height="0" x="311" y="40" style="fill:rgb(240,240,0);stroke:none"/>
<rect width="14" height="0" x="311" y="40" rx="0" ry="0" style="fill:none;stroke-width:1;stroke:rgb(0,0,0)"/>
<line x1="318" y1="40" x2="318" y2="40" stroke="rgb(0,0,0)" stroke-width="1"/>
<line x1="311" y1="40" x2="325" y2="40" stroke="rgb(0,0,0)" stroke-width="1"/>
<line x1="318" y1="131" x2="318" y2="40" stroke="rgb(0,0,0)" stroke-width="1"/>
<line x1="311" y1="131" x2="325" y2="131" stroke="rgb(0,0,0)" stroke-width="1"/>
<line x1="311" y1="40" x2="325" y2="40" stroke="rgb(200,0,0)" stroke-width="1"/>
<rect width="14" height="0" x="329" y="40" style="fill:rgb(240,240,0);stroke:none"/>
<rect width="14" height="0" x="329" y="40" rx="0" ry="0" style="fill:none;stroke-width:1;stroke:rgb(0,0,0)"/>
<line x1="336" y1="40" x2="336" y2="40" stroke="rgb(0,0,0)" stroke-width="1"/>
<line x1="329" y1="40" x2="343" y2="40" stroke="rgb(0,0,0)" stroke-width="1"/>
<line x1="336" y1="144" x2="336" y2="40" stroke="rgb(0,0,0)" stroke-width="1"/>
<line x1="329" y1="144" x2="343" y2="144" stroke="rgb(0,0,0)" stroke-width="1"/>
<line x1="329" y1="40" x2="343" y2="40" stroke="rgb(200,0,0)" stroke-width="1"/>
<rect width="14" height="0" x="347" y="40" style="fill:rgb(240,240,0);stroke:none"/>
<rect width="14" height="0" x="347" y="40" rx="0" ry="0" style="fill:none;stroke-width:1;stroke:rgb(0,0,0)"/>
<line x1="354" y1="40" x2="354" y2="40" stroke="rgb(0,0,0)" stroke-width="1"/>
<line x1="347" y1="40" x2="361" y2="40" stroke="rgb(0,0,0)" stroke-width="1"/>
<line x1="354" y1="170" x2="354" y2="40" stroke="rgb(0,0,0)" stroke-width="1"/>
<line x1="347" y1="170" x2="361" y2="170" stroke="rgb(0,0,0)" stroke-width="1"/>
<line x1="347" y1="40" x2="361" y2="40" stroke="rgb(200,0,0)" stroke-width="1"/>
<rect width="14" height="0" x="365" y="40" style="fill:rgb(240,240,0);stroke:none"/>
<rect width="14" height="0" x="365" y="40" rx="0" ry="0" style="fill:none;stroke-width:1;stroke:rgb(0,0,0)"/>
<line x1="372" y1="40" x2="372" y2="40" stroke="rgb(0,0,0)" stroke-width="1"/>
<line x1="365" y1="40" x2="379" y2="40" stroke="rgb(0,0,0)" stroke-width="1"/>
<line x1="372" y1="196" x2="372" y2="40" stroke="rgb(0,0,0)" stroke-width="1"/>
<line x1="365" y1="196" x2="379" y2="196" stroke="rgb(0,0,0)" stroke-width="1"/>
<line x1="365" y1="40" x2="379" y2="40" stroke="rgb(200,0,0)" stroke-width="1"/>
<rect width="14" height="0" x="383" y="40" style="fill:rgb(240,240,0);stroke:none"/>
<rect width="14" height="0" x="383" y="40" rx="0" ry="0" style="fill:none;stroke-width:1;stroke:rgb(0,0,0)"/>
<line x1="390" y1="40" x2="390" y2="40" stroke="rgb(0,0,0)" stroke-width="1"/>
<line x1="383" y1="40" x2="397" y2="40" stroke="rgb(0,0,0)" stroke-width="1"/>
<line x1="390" y1="222" x2="390" y2="40" stroke="rgb(0,0,0)" stroke-width="1"/>
<line x1="383" y1="222" x2="397" y2="222" stroke="rgb(0,0,0)" stroke-width="1"/>
<line x1="383" y1="40" x2="397" y2="40" stroke="rgb(200,0,0)" stroke-width="1"/>
<rect width="14" height="39" x="401" y="40" style="fill:rgb(240,240,0);stroke:none"/>
<rect width="14" height="39" x="401" y="40" rx="0" ry="0" style="fill:none;stroke-width:1;stroke:rgb(0,0,0)"/>
<line x1="408" y1="40" x2="408" y2="40" stroke="rgb(0,0,0)" stroke-width="1"/>
<line x1="401" y1="40" x2="415" y2="40" stroke="rgb(0,0,0)" stroke-width="1"/>
<line x1="408" y1="300" x2="408" y2="79" stroke="rgb(0,0,0)" stroke-width="1"/>
<line x1="401" y1="300" x2="415" y2="300" stroke="rgb(0,0,0)" stroke-width="1"/>
<line x1="401" y1="40" x2="415" y2="40" stroke="rgb(200,0,0)" stroke-width="1"/>
<rect width="14" height="39" x="419" y="40" style="fill:rgb(240,240,0);stroke:none"/>
<rect width="14" height="39" x="419" y="40" rx="0" ry="0" style="fill:none;stroke-width:1;stroke:rgb(0,0,0)"/>
<line x1="426" y1="40" x2="426" y2="40" stroke="rgb(0,0,0)" stroke-width="1"/>
<line x1="419" y1="40" x2="433" y2="40" stroke="rgb(0,0,0)" stroke-width="1"/>
<line x1="426" y1="300" x2="426" y2="79" stroke="rgb(0,0,0)" stroke-width="1"/>
<line x1="419" y1="300" x2="433" y2="300" stroke="rgb(0,0,0)" stroke-width="1"/>
<line x1="419" y1="40" x2="433" y2="40" stroke="rgb(200,0,0)" stroke-width="1"/>
<rect width="14" height="65" x="437" y="40" style="fill:rgb(240,240,0);stroke:none"/>
<rect width="14" height="65" x="437" y="40" rx="0" ry="0" style="fill:none;stroke-width:1;stroke:rgb(0,0,0)"/>
<line x1="444" y1="40" x2="444" y2="40" stroke="rgb(0,0,0)" stroke-width="1"/>
<line x1="437" y1="40" x2="451" y2="40" stroke="rgb(0,0,0)" stroke-width="1"/>
<line x1="444" y1="313" x2="444" y2="105" stroke="rgb(0,0,0)" stroke-width="1"/>
<line x1="437" y1="313" x2="451" y2="313" stroke="rgb(0,0,0)" stroke-width="1"/>
<line x1="437" y1="40" x2="451" y2="40" stroke="rgb(200,0,0)" stroke-width="1"/>
<rect width="14" height="78" x="455" y="40" style="fill:rgb(240,240,0);stroke:none"/>
<rect width="14" height="78" x="455" y="40" rx="0" ry="0" style="fill:none;stroke-width:1;stroke:rgb(0,0,0)"/>
<line x1="462" y1="40" x2="462" y2="40" stroke="rgb(0,0,0)" stroke-width="1"/>
<line x1="455" y1="40" x2="469" y2="40" stroke="rgb(0,0,0)" stroke-width="1"/>
<line x1="462" y1="313" x2="462" y2="118" stroke="rgb(0,0,0)" stroke-width="1"/>
<line x1="455" y1="313" x2="469" y2="313" stroke="rgb(0,0,0)" stroke-width="1"/>
<line x1="455" y1="40" x2="469" y2="40" stroke="rgb(200,0,0)" stroke-width="1"/>
<rect width="14" height="91" x="473" y="40" style="fill:rgb(240,240,0);stroke:none"/>
<rect width="14" height="91" x="473" y="40" rx="0" ry="0" style="fill:none;stroke-width:1;stroke:rgb(0,0,0)"/>
<line x1="480" y1="40" x2="480" y2="40" stroke="rgb(0,0,0)" stroke-width="1"/>
<line x1="473" y1="40" x2="487" y2="40" stroke="rgb(0,0,0)" stroke-width="1"/>
<line x1="480" y1="313" x2="480" y2="131" stroke="rgb(0,0,0)" stroke-width="1"/>
<line x1="473" y1="313" x2="487" y2="313" stroke="rgb(0,0,0)" stroke-width="1"/>
<line x1="473" y1="40" x2="487" y2="40" stroke="rgb(200,0,0)" stroke-width="1"/>
<rect width="14" height="130" x="491" y="40" style="fill:rgb(240,240,0);stroke:none"/>
<rect width="14" height="130" x="491" y="40" rx="0" ry="0" style="fill:none;stroke-width:1;stroke:rgb(0,0,0)"/>
<line x1="498" y1="40" x2="498" y2="40" stroke="rgb(0,0,0)" stroke-width="1"/>
<line x1="491" y1="40" x2="505" y2="40" stroke="rgb(0,0,0)" stroke-width="1"/>
<line x1="498" y1="352" x2="498" y2="170" stroke="rgb(0,0,0)" stroke-width="1"/>
<line x1="491" y1="352" x2="505" y2="352" stroke="rgb(0,0,0)" stroke-width="1"/>
<line x1="491" y1="40" x2="505" y2="40" stroke="rgb(200,0,0)" stroke-width="1"/>
<rect width="14" height="130" x="509" y="40" style="fill:rgb(240,240,0);stroke:none"/>
<rect width="14" height="130" x="509" y="40" rx="0" ry="0" style="fill:none;stroke-width:1;stroke:rgb(0,0,0)"/>
<line x1="516" y1="40" x2="516" y2="40" stroke="rgb(0,0,0)" stroke-width="1"/>
<line x1="509" y1="40" x2="523" y2="40" stroke="rgb(0,0,0)" stroke-width="1"/>
<line x1="516" y1="339" x2="516" y2="170" stroke="rgb(0,0,0)" stroke-width="1"/>
<line x1="509" y1="339" x2="523" y2="339" stroke="rgb(0,0,0)" stroke-width="1"/>
<line x1="509" y1="40" x2="523" y2="40" stroke="rgb(200,0,0)" stroke-width="1"/>
<rect width="14" height="156" x="527" y="40" style="fill:rgb(240,240,0);stroke:none"/>
<rect width="14" height="156" x="527" y="40" rx="0" ry="0" style="fill:none;stroke-width:1;stroke:rgb(0,0,0)"/>
<line x1="534" y1="40" x2="534" y2="40" stroke="rgb(0,0,0)" stroke-width="1"/>
<line x1="527" y1="40" x2="541" y2="40" stroke="rgb(0,0,0)" stroke-width="1"/>
<line x1="534" y1="365" x2="534" y2="196" stroke="rgb(0,0,0)" stroke-width="1"/>
<line x1="527" y1="365" x2="541" y2="365" stroke="rgb(0,0,0)" stroke-width="1"/>
<line x1="527" y1="40" x2="541" y2="40" stroke="rgb(200,0,0)" stroke-width="1"/>
<rect width="14" height="169" x="545" y="40" style="fill:rgb(240,240,0);stroke:none"/>
<rect width="14" height="169" x="545" y="40" rx="0" ry="0" style="fill:none;stroke-width:1;stroke:rgb(0,0,0)"/>
<line x1="552" y1="40" x2="552" y2="40" stroke="rgb(0,0,0)" stroke-width="1"/>
<line x1="545" y1="40" x2="559" y2="40" stroke="rgb(0,0,0)" stroke-width="1"/>
<line x1="552" y1="365" x2="552" y2="209" stroke="rgb(0,0,0)" stroke-width="1"/>
<line x1="545" y1="365" x2="559" y2="365" stroke="rgb(0,0,0)" stroke-width="1"/>
<line x1="545" y1="40" x2="559" y2="40" stroke="rgb(200,0,0)" stroke-width="1"/>
<rect width="14" height="195" x="563" y="40" style="fill:rgb(240,240,0);stroke:none"/>
<rect width="14" height="195" x="563" y="40" rx="0" ry="0" style="fill:none;stroke-width:1;stroke:rgb(0,0,0)"/>
<line x1="570" y1="40" x2="570" y2="40" stroke="rgb(0,0,0)" stroke-width="1"/>
<line x1="563" y1="40" x2="577" y2="40" stroke="rgb(0,0,0)" stroke-width="1"/>
<line x1="570" y1="378" x2="570" y2="235" stroke="rgb(0,0,0)" stroke-width="1"/>
<line x1="563" y1="378" x2="577" y2="378" stroke="rgb(0,0,0)" stroke-width="1"/>
<line x1="563" y1="40" x2="577" y2="40" stroke="rgb(200,0,0)" stroke-width="1"/>
<rect width="14" height="221" x="581" y="40" style="fill:rgb(240,240,0);stroke:none"/>
<rect width="14" height="221" x="581" y="40" rx="0" ry="0" style="fill:none;stroke-width:1;stroke:rgb(0,0,0)"/>
<line x1="588" y1="40" x2="588" y2="40" stroke="rgb(0,0,0)" stroke-width="1"/>
<line x1="581" y1="40" x2="595" y2="40" stroke="rgb(0,0,0)" stroke-width="1"/>
<line x1="588" y1="404" x2="588" y2="261" stroke="rgb(0,0,0)" stroke-width="1"/>
<line x1="581" y1="404" x2="595" y2="404" stroke="rgb(0,0,0)" stroke-width="1"/>
<line x1="581" y1="40" x2="595" y2="40" stroke="rgb(200,0,0)" stroke-width="1"/>
<rect width="14" height="221" x="599" y="40" style="fill:rgb(240,240,0);stroke:none"/>
<rect width="14" height="221" x="599" y="40" rx="0" ry="0" style="fill:none;stroke-width:1;stroke:rgb(0,0,0)"/>
<line x1="606" y1="40" x2="606" y2="40" stroke="rgb(0,0,0)" stroke-width="1"/>
<line x1="599" y1="40" x2="613" y2="40" stroke="rgb(0,0,0)" stroke-width="1"/>
<line x1="606" y1="404" x2="606" y2="261" stroke="rgb(0,0,0)" stroke-width="1"/>
<line x1="599" y1="404" x2="613" y2="404" stroke="rgb(0,0,0)" stroke-width="1"/>
<line x1="599" y1="66" x2="613" y2="66" stroke="rgb(200,0,0)" stroke-width="1"/>
<rect width="14" height="247" x="617" y="40" style="fill:rgb(240,240,0);stroke:none"/>
<rect width="14" height="247" x="617" y="40" rx="0" ry="0" style="fill:none;stroke-width:1;stroke:rgb(0,0,0)"/>
<line x1="624" y1="40" x2="624" y2="40" stroke="rgb(0,0,0)" stroke-width="1"/>
<line x1="617" y1="40" x2="631" y2="40" stroke="rgb(0,0,0)" stroke-width="1"/>
<line x1="624" y1="417" x2="624" y2="287" stroke="rgb(0,0,0)" stroke-width="1"/>
<line x1="617" y1="417" x2="631" y2="417" stroke="rgb(0,0,0)" stroke-width="1"/>
<line x1="617" y1="92" x2="631" y2="92" stroke="rgb(200,0,0)" stroke-width="1"/>
<rect width="14" height="299" x="635" y="40" style="fill:rgb(240,240,0);stroke:none"/>
<rect width="14" height="299" x="635" y="40" rx="0" ry="0" style="fill:none;stroke-width:1;stroke:rgb(0,0,0)"/>
<line x1="642" y1="40" x2="642" y2="40" stroke="rgb(0,0,0)" stroke-width="1"/>
<line x1="635" y1="40" x2="649" y2="40" stroke="rgb(0,0,0)" stroke-width="1"/>
<line x1="642" y1="443" x2="642" y2="339" stroke="rgb(0,0,0)" stroke-width="1"/>
<line x1="635" y1="443" x2="649" y2="443" stroke="rgb(0,0,0)" stroke-width="1"/>
<line x1="635" y1="144" x2="649" y2="144" stroke="rgb(200,0,0)" stroke-width="1"/>
<rect width="14" height="260" x="653" y="40" style="fill:rgb(240,240,0);stroke:none"/>
<rect width="14" height="260" x="653" y="40" rx="0" ry="0" style="fill:none;stroke-width:1;stroke:rgb(0,0,0)"/>
<line x1="660" y1="40" x2="660" y2="40" stroke="rgb(0,0,0)" stroke-width="1"/>
<line x1="653" y1="40" x2="667" y2="40" stroke="rgb(0,0,0)" stroke-width="1"/>
<line x1="660" y1="430" x2="660" y2="300" stroke="rgb(0,0,0)" stroke-width="1"/>
<line x1="653" y1="430" x2="667" y2="430" stroke="rgb(0,0,0)" stroke-width="1"/>
<line x1="653" y1="157" x2="667" y2="157" stroke="rgb(200,0,0)" stroke-width="1"/>
<rect width="14" height="260" x="671" y="40" style="fill:rgb(240,240,0);stroke:none"/>
<rect width="14" height="260" x="671" y="40" rx="0" ry="0" style="fill:none;stroke-width:1;stroke:rgb(0,0,0)"/>
<line x1="678" y1="40" x2="678" y2="40" stroke="rgb(0,0,0)" stroke-width="1"/>
<line x1="671" y1="40" x2="685" y2="40" stroke="rgb(0,0,0)" stroke-width="1"/>
<line x1="678" y1="430" x2="678" y2="300" stroke="rgb(0,0,0)" stroke-width="1"/>
<line x1="671" y1="430" x2="685" y2="430" stroke="rgb(0,0,0)" stroke-width="1"/>
<line x1="671" y1="157" x2="685" y2="157" stroke="rgb(200,0,0)" stroke-width="1"/>
<rect width="14" height="273" x="689" y="40" style="fill:rgb(240,240,0);stroke:none"/>
<rect width="14" height="273" x="689" y="40" rx="0" ry="0" style="fill:none;stroke-width:1;stroke:rgb(0,0,0)"/>
<line x1="696" y1="40" x2="696" y2="40" stroke="rgb(0,0,0)" stroke-width="1"/>
<line x1="689" y1="40" x2="703" y2="40" stroke="rgb(0,0,0)" stroke-width="1"/>
<line x1="696" y1="443" x2="696" y2="313" stroke="rgb(0,0,0)" stroke-width="1"/>
<line x1="689" y1="443" x2="703" y2="443" stroke="rgb(0,0,0)" stroke-width="1"/>
<line x1="689" y1="170" x2="703" y2="170" stroke="rgb(200,0,0)" stroke-width="1"/>
<rect width="14" height="260" x="707" y="40" style="fill:rgb(240,240,0);stroke:none"/>
<rect width="14" height="260" x="707" y="40" rx="0" ry="0" style="fill:none;stroke-width:1;stroke:rgb(0,0,0)"/>
<line x1="714" y1="40" x2="714" y2="40" stroke="rgb(0,0,0)" stroke-width="1"/>
<line x1="707" y1="40" x2="721" y2="40" stroke="rgb(0,0,0)" stroke-width="1"/>
<line x1="714" y1="430" x2="714" y2="300" stroke="rgb(0,0,0)" stroke-width="1"/>
<line x1="707" y1="430" x2="721" y2="430" stroke="rgb(0,0,0)" stroke-width="1"/>
<line x1="707" y1="157" x2="721" y2="157" stroke="rgb(200,0,0)" stroke-width="1"/>
<rect width="14" height="260" x="725" y="40" style="fill:rgb(240,240,0);stroke:none"/>
<rect width="14" height="260" x="725" y="40" rx="0" ry="0" style="fill:none;stroke-width:1;stroke:rgb(0,0,0)"/>
<line x1="732" y1="40" x2="732" y2="40" stroke="rgb(0,0,0)" stroke-width="1"/>
<line x1="725" y1="40" x2="739" y2="40" stroke="rgb(0,0,0)" stroke-width="1"/>
<line x1="732" y1="443" x2="732" y2="300" stroke="rgb(0,0,0)" stroke-width="1"/>
<line x1="725" y1="443" x2="739" y2="443" stroke="rgb(0,0,0)" stroke-width="1"/>
<line x1="725" y1="157" x2="739" y2="157" stroke="rgb(200,0,0)" stroke-width="1"/>
<rect width="14" height="260" x="743" y="40" style="fill:rgb(240,240,0);stroke:none"/>
<rect width="14" height="260" x="743" y="40" rx="0" ry="0" style="fill:none;stroke-width:1;stroke:rgb(0,0,0)"/>
<line x1="750" y1="40" x2="750" y2="40" stroke="rgb(0,0,0)" stroke-width="1"/>
<line x1="743" y1="40" x2="757" y2="40" stroke="rgb(0,0,0)" stroke-width="1"/>
<line x1="750" y1="443" x2="750" y2="300" stroke="rgb(0,0,0)" stroke-width="1"/>
<line x1="743" y1="443" x2="757" y2="443" stroke="rgb(0,0,0)" stroke-width="1"/>
<line x1="743" y1="170" x2="757" y2="170" stroke="rgb(200,0,0)" stroke-width="1"/>
<rect width="14" height="130" x="761" y="40" style="fill:rgb(240,240,0);stroke:none"/>
<rect width="14" height="130" x="761" y="40" rx="0" ry="0" style="fill:none;stroke-width:1;stroke:rgb(0,0,0)"/>
<line x1="768" y1="40" x2="768" y2="40" stroke="rgb(0,0,0)" stroke-width="1"/>
<line x1="761" y1="40" x2="775" y2="40" stroke="rgb(0,0,0)" stroke-width="1"/>
<line x1="768" y1="261" x2="768" y2="170" stroke="rgb(0,0,0)" stroke-width="1"/>
<line x1="761" y1="261" x2="775" y2="261" stroke="rgb(0,0,0)" stroke-width="1"/>
<line x1="761" y1="40" x2="775" y2="40" stroke="rgb(200,0,0)" stroke-width="1"/>
<line x1="30" y1="58" x2="48" y2="56" stroke="rgb(0,0,200)" stroke-width="1"/>
<line x1="48" y1="56" x2="66" y2="55" stroke="rgb(0,0,200)" stroke-width="1"/>
<line x1="66" y1="55" x2="84" y2="54" stroke="rgb(0,0,200)" stroke-width="1"/>
<line x1="84" y1="54" x2="102" y2="54" stroke="rgb(0,0,200)" stroke-width="1"/>
<line x1="102" y1="54" x2="120" y2="55" stroke="rgb(0,0,200)" stroke-width="1"/>
<line x1="120" y1="55" x2="138" y2="54" stroke="rgb(0,0,200)" stroke-width="1"/>
<line x1="138" y1="54" x2="156" y2="56" stroke="rgb(0,0,200)" stroke-width="1"/>
<line x1="156" y1="56" x2="174" y2="56" stroke="rgb(0,0,200)" stroke-width="1"/>
<line x1="174" y1="56" x2="192" y2="58" stroke="rgb(0,0,200)" stroke-width="1"/>
<line x1="192" y1="58" x2="210" y2="58" stroke="rgb(0,0,200)" stroke-width="1"/>
<line x1="210" y1="58" x2="228" y2="63" stroke="rgb(0,0,200)" stroke-width="1"/>
<line x1="228" y1="63" x2="246" y2="59" stroke="rgb(0,0,200)" stroke-width="1"/>
<line x1="246" y1="59" x2="264" y2="60" stroke="rgb(0,0,200)" stroke-width="1"/>
<line x1="264" y1="60" x2="282" y2="66" stroke="rgb(0,0,200)" stroke-width="1"/>
<line x1="282" y1="66" x2="300" y2="67" stroke="rgb(0,0,200)" stroke-width="1"/>
<line x1="300" y1="67" x2="318" y2="68" stroke="rgb(0,0,200)" stroke-width="1"/>
<line x1="318" y1="68" x2="336" y2="69" stroke="rgb(0,0,200)" stroke-width="1"/>
<line x1="336" y1="69" x2="354" y2="72" stroke="rgb(0,0,200)" stroke-width="1"/>
<line x1="354" y1="72" x2="372" y2="77" stroke="rgb(0,0,200)" stroke-width="1"/>
<line x1="372" y1="77" x2="390" y2="81" stroke="rgb(0,0,200)" stroke-width="1"/>
<line x1="390" y1="81" x2="408" y2="100" stroke="rgb(0,0,200)" stroke-width="1"/>
<line x1="408" y1="100" x2="426" y2="99" stroke="rgb(0,0,200)" stroke-width="1"/>
<line x1="426" y1="99" x2="444" y2="103" stroke="rgb(0,0,200)" stroke-width="1"/>
<line x1="444" y1="103" x2="462" y2="107" stroke="rgb(0,0,200)" stroke-width="1"/>
<line x1="462" y1="107" x2="480" y2="107" stroke="rgb(0,0,200)" stroke-width="1"/>
<line x1="480" y1="107" x2="498" y2="120" stroke="rgb(0,0,200)" stroke-width="1"/>
<line x1="498" y1="120" x2="516" y2="120" stroke="rgb(0,0,200)" stroke-width="1"/>
<line x1="516" y1="120" x2="534" y2="129" stroke="rgb(0,0,200)" stroke-width="1"/>
<line x1="534" y1="129" x2="552" y2="134" stroke="rgb(0,0,200)" stroke-width="1"/>
<line x1="552" y1="134" x2="570" y2="141" stroke="rgb(0,0,200)" stroke-width="1"/>
<line x1="570" y1="141" x2="588" y2="153" stroke="rgb(0,0,200)" stroke-width="1"/>
<line x1="588" y1="153" x2="606" y2="159" stroke="rgb(0,0,200)" stroke-width="1"/>
<line x1="606" y1="159" x2="624" y2="171" stroke="rgb(0,0,200)" stroke-width="1"/>
<line x1="624" y1="171" x2="642" y2="194" stroke="rgb(0,0,200)" stroke-width="1"/>
<line x1="642" y1="194" x2="660" y2="190" stroke="rgb(0,0,200)" stroke-width="1"/>
<line x1="660" y1="190" x2="678" y2="193" stroke="rgb(0,0,200)" stroke-width="1"/>
<line x1="678" y1="193" x2="696" y2="197" stroke="rgb(0,0,200)" stroke-width="1"/>
<line x1="696" y1="197" x2="714" y2="191" stroke="rgb(0,0,200)" stroke-width="1"/>
<line x1="714" y1="191" x2="732" y2="193" stroke="rgb(0,0,200)" stroke-width="1"/>
<line x1="732" y1="193" x2="750" y2="197" stroke="rgb(0,0,200)" stroke-width="1"/>
<line x1="750" y1="197" x2="768" y2="103" stroke="rgb(0,0,200)" stroke-width="1"/>
</svg>
