<?xml version="1.0" standalone="no"?>
<!DOCTYPE svg PUBLIC "-//W3C//DTD SVG 1.1//EN" "http://www.w3.org/Graphics/SVG/1.1/DTD/svg11.dtd">
<svg width="800" height="600" version="1.1" xmlns="http://www.w3.org/2000/svg">
<rect width="800" height="600" x="0" y="0" style="fill:rgb(238,238,238);stroke:none"/>
<rect width="800" height="600" x="0" y="0" style="fill:rgb(255,255,255);stroke:none"/>
<text x="2" y="566" fill="rgb(0,0,0)" font-family="Arial" font-size="12">0</text>
<text x="2" y="463" fill="rgb(0,0,0)" font-family="Arial" font-size="12">20000</text>
<text x="2" y="359" fill="rgb(0,0,0)" font-family="Arial" font-size="12">40000</text>
<text x="2" y="256" fill="rgb(0,0,0)" font-family="Arial" font-size="12">60000</text>
<text x="2" y="152" fill="rgb(0,0,0)" font-family="Arial" font-size="12">80000</text>
<text x="2" y="48" fill="rgb(0,0,0)" font-family="Arial" font-size="12">100000</text>
<text x="258" y="30" fill="rgb(0,0,0)" font-family="Arial" font-size="12">Distribution of sequence lengths over all sequences</text>
<line x1="53" y1="560" x2="790" y2="560" stroke="rgb(0,0,0)" stroke-width="1"/>
<line x1="53" y1="560" x2="53" y2="40" stroke="rgb(0,0,0)" stroke-width="1"/>
<text x="330" y="595" fill="rgb(0,0,0)" font-family="Arial" font-size="12">Sequence Length (bp)</text>
<text x="85" y="575" fill="rgb(0,0,0)" font-family="Arial" font-size="12">35</text>
<rect width="81" height="520" x="134" y="40" style="fill:rgb(230,230,230);stroke:none"/>
<text x="166" y="575" fill="rgb(0,0,0)" font-family="Arial" font-size="12">36</text>
<text x="247" y="575" fill="rgb(0,0,0)" font-family="Arial" font-size="12">37</text>
<rect width="81" height="520" x="296" y="40" style="fill:rgb(230,230,230);stroke:none"/>
<text x="328" y="575" fill="rgb(0,0,0)" font-family="Arial" font-size="12">38</text>
<text x="409" y="575" fill="rgb(0,0,0)" font-family="Arial" font-size="12">39</text>
<rect width="81" height="520" x="458" y="40" style="fill:rgb(230,230,230);stroke:none"/>
<text x="490" y="575" fill="rgb(0,0,0)" font-family="Arial" font-size="12">40</text>
<text x="571" y="575" fill="rgb(0,0,0)" font-family="Arial" font-size="12">41</text>
<rect width="81" height="520" x="620" y="40" style="fill:rgb(230,230,230);stroke:none"/>
<text x="652" y="575" fill="rgb(0,0,0)" font-family="Arial" font-size="12">42</text>
<text x="733" y="575" fill="rgb(0,0,0)" font-family="Arial" font-size="12">43</text>
<line x1="53" y1="560" x2="790" y2="560" stroke="rgb(180,180,180)" stroke-width="1"/>
<line x1="53" y1="457" x2="790" y2="457" stroke="rgb(180,180,180)" stroke-width="1"/>
<line x1="53" y1="353" x2="790" y2="353" stroke="rgb(180,180,180)" stroke-width="1"/>
<line x1="53" y1="250" x2="790" y2="250" stroke="rgb(180,180,180)" stroke-width="1"/>
<line x1="53" y1="146" x2="790" y2="146" stroke="rgb(180,180,180)" stroke-width="1"/>
<line x1="53" y1="42" x2="790" y2="42" stroke="rgb(180,180,180)" stroke-width="1"/>
<line x1="93" y1="560" x2="174" y2="40" stroke="rgb(136,34,85)" stroke-width="1"/>
<line x1="174" y1="40" x2="255" y2="134" stroke="rgb(136,34,85)" stroke-width="1"/>
<line x1="255" y1="134" x2="336" y2="230" stroke="rgb(136,34,85)" stroke-width="1"/>
<line x1="336" y1="230" x2="417" y2="281" stroke="rgb(136,34,85)" stroke-width="1"/>
<line x1="417" y1="281" x2="498" y2="328" stroke="rgb(136,34,85)" stroke-width="1"/>
<line x1="498" y1="328" x2="579" y2="293" stroke="rgb(136,34,85)" stroke-width="1"/>
<line x1="579" y1="293" x2="660" y2="78" stroke="rgb(136,34,85)" stroke-width="1"/>
<line x1="660" y1="78" x2="741" y2="560" stroke="rgb(136,34,85)" stroke-width="1"/>
<rect width="130" height="23" x="660" y="40" style="fill:rgb(255,255,255);stroke:none"/>
<rect width="130" height="23" x="660" y="40" rx="0" ry="0" style="fill:none;stroke-width:1;stroke:rgb(192,192,192)"/>
<text x="663" y="55" fill="rgb(136,34,85)" font-family="Arial" font-size="12" font-weight="bold">Sequence Length</text>
</svg>
