<?xml version="1.0" standalone="no"?>
<!DOCTYPE svg PUBLIC "-//W3C//DTD SVG 1.1//EN" "http://www.w3.org/Graphics/SVG/1.1/DTD/svg11.dtd">
<svg width="800" height="600" version="1.1" xmlns="http://www.w3.org/2000/svg">
<rect width="800" height="600" x="0" y="0" style="fill:rgb(238,238,238);stroke:none"/>
<rect width="800" height="600" x="0" y="0" style="fill:rgb(255,255,255);stroke:none"/>
<text x="2" y="566" fill="rgb(0,0,0)" font-family="Arial" font-size="12">0</text>
<text x="2" y="513" fill="rgb(0,0,0)" font-family="Arial" font-size="12">100000</text>
<text x="2" y="460" fill="rgb(0,0,0)" font-family="Arial" font-size="12">200000</text>
<text x="2" y="407" fill="rgb(0,0,0)" font-family="Arial" font-size="12">300000</text>
<text x="2" y="354" fill="rgb(0,0,0)" font-family="Arial" font-size="12">400000</text>
<text x="2" y="300" fill="rgb(0,0,0)" font-family="Arial" font-size="12">500000</text>
<text x="2" y="247" fill="rgb(0,0,0)" font-family="Arial" font-size="12">600000</text>
<text x="2" y="194" fill="rgb(0,0,0)" font-family="Arial" font-size="12">700000</text>
<text x="2" y="141" fill="rgb(0,0,0)" font-family="Arial" font-size="12">800000</text>
<text x="2" y="88" fill="rgb(0,0,0)" font-family="Arial" font-size="12">900000</text>
<text x="282" y="30" fill="rgb(0,0,0)" font-family="Arial" font-size="12">Quality score distribution over all sequences</text>
<line x1="53" y1="560" x2="790" y2="560" stroke="rgb(0,0,0)" stroke-width="1"/>
<line x1="53" y1="560" x2="53" y2="40" stroke="rgb(0,0,0)" stroke-width="1"/>
<text x="281" y="595" fill="rgb(0,0,0)" font-family="Arial" font-size="12">Mean Sequence Quality (Phred Score)</text>
<text x="57" y="575" fill="rgb(0,0,0)" font-family="Arial" font-size="12">0</text>
<rect width="17" height="520" x="70" y="40" style="fill:rgb(230,230,230);stroke:none"/>
<text x="74" y="575" fill="rgb(0,0,0)" font-family="Arial" font-size="12">1</text>
<text x="91" y="575" fill="rgb(0,0,0)" font-family="Arial" font-size="12">2</text>
<rect width="17" height="520" x="104" y="40" style="fill:rgb(230,230,230);stroke:none"/>
<text x="108" y="575" fill="rgb(0,0,0)" font-family="Arial" font-size="12">3</text>
<text x="125" y="575" fill="rgb(0,0,0)" font-family="Arial" font-size="12">4</text>
<rect width="17" height="520" x="138" y="40" style="fill:rgb(230,230,230);stroke:none"/>
<text x="142" y="575" fill="rgb(0,0,0)" font-family="Arial" font-size="12">5</text>
<text x="159" y="575" fill="rgb(0,0,0)" font-family="Arial" font-size="12">6</text>
<rect width="17" height="520" x="172" y="40" style="fill:rgb(230,230,230);stroke:none"/>
<text x="176" y="575" fill="rgb(0,0,0)" font-family="Arial" font-size="12">7</text>
<text x="193" y="575" fill="rgb(0,0,0)" font-family="Arial" font-size="12">8</text>
<rect width="17" height="520" x="206" y="40" style="fill:rgb(230,230,230);stroke:none"/>
<text x="210" y="575" fill="rgb(0,0,0)" font-family="Arial" font-size="12">9</text>
<rect width="17" height="520" x="240" y="40" style="fill:rgb(230,230,230);stroke:none"/>
<text x="240" y="575" fill="rgb(0,0,0)" font-family="Arial" font-size="12">11</text>
<rect width="17" height="520" x="274" y="40" style="fill:rgb(230,230,230);stroke:none"/>
<text x="274" y="575" fill="rgb(0,0,0)" font-family="Arial" font-size="12">13</text>
<rect width="17" height="520" x="308" y="40" style="fill:rgb(230,230,230);stroke:none"/>
<text x="308" y="575" fill="rgb(0,0,0)" font-family="Arial" font-size="12">15</text>
<rect width="17" height="520" x="342" y="40" style="fill:rgb(230,230,230);stroke:none"/>
<text x="342" y="575" fill="rgb(0,0,0)" font-family="Arial" font-size="12">17</text>
<rect width="17" height="520" x="376" y="40" style="fill:rgb(230,230,230);stroke:none"/>
<text x="376" y="575" fill="rgb(0,0,0)" font-family="Arial" font-size="12">19</text>
<rect width="17" height="520" x="410" y="40" style="fill:rgb(230,230,230);stroke:none"/>
<text x="410" y="575" fill="rgb(0,0,0)" font-family="Arial" font-size="12">21</text>
<rect width="17" height="520" x="444" y="40" style="fill:rgb(230,230,230);stroke:none"/>
<text x="444" y="575" fill="rgb(0,0,0)" font-family="Arial" font-size="12">23</text>
<rect width="17" height="520" x="478" y="40" style="fill:rgb(230,230,230);stroke:none"/>
<text x="478" y="575" fill="rgb(0,0,0)" font-family="Arial" font-size="12">25</text>
<rect width="17" height="520" x="512" y="40" style="fill:rgb(230,230,230);stroke:none"/>
<text x="512" y="575" fill="rgb(0,0,0)" font-family="Arial" font-size="12">27</text>
<rect width="17" height="520" x="546" y="40" style="fill:rgb(230,230,230);stroke:none"/>
<text x="546" y="575" fill="rgb(0,0,0)" font-family="Arial" font-size="12">29</text>
<rect width="17" height="520" x="580" y="40" style="fill:rgb(230,230,230);stroke:none"/>
<text x="580" y="575" fill="rgb(0,0,0)" font-family="Arial" font-size="12">31</text>
<rect width="17" height="520" x="614" y="40" style="fill:rgb(230,230,230);stroke:none"/>
<text x="614" y="575" fill="rgb(0,0,0)" font-family="Arial" font-size="12">33</text>
<rect width="17" height="520" x="648" y="40" style="fill:rgb(230,230,230);stroke:none"/>
<text x="648" y="575" fill="rgb(0,0,0)" font-family="Arial" font-size="12">35</text>
<rect width="17" height="520" x="682" y="40" style="fill:rgb(230,230,230);stroke:none"/>
<text x="682" y="575" fill="rgb(0,0,0)" font-family="Arial" font-size="12">37</text>
<rect width="17" height="520" x="716" y="40" style="fill:rgb(230,230,230);stroke:none"/>
<text x="716" y="575" fill="rgb(0,0,0)" font-family="Arial" font-size="12">39</text>
<line x1="53" y1="560" x2="790" y2="560" stroke="rgb(180,180,180)" stroke-width="1"/>
<line x1="53" y1="507" x2="790" y2="507" stroke="rgb(180,180,180)" stroke-width="1"/>
<line x1="53" y1="454" x2="790" y2="454" stroke="rgb(180,180,180)" stroke-width="1"/>
<line x1="53" y1="401" x2="790" y2="401" stroke="rgb(180,180,180)" stroke-width="1"/>
<line x1="53" y1="348" x2="790" y2="348" stroke="rgb(180,180,180)" stroke-width="1"/>
<line x1="53" y1="294" x2="790" y2="294" stroke="rgb(180,180,180)" stroke-width="1"/>
<line x1="53" y1="241" x2="790" y2="241" stroke="rgb(180,180,180)" stroke-width="1"/>
<line x1="53" y1="188" x2="790" y2="188" stroke="rgb(180,180,180)" stroke-width="1"/>
<line x1="53" y1="135" x2="790" y2="135" stroke="rgb(180,180,180)" stroke-width="1"/>
<line x1="53" y1="82" x2="790" y2="82" stroke="rgb(180,180,180)" stroke-width="1"/>
<line x1="61" y1="548" x2="78" y2="551" stroke="rgb(136,34,85)" stroke-width="1"/>
<line x1="78" y1="551" x2="95" y2="547" stroke="rgb(136,34,85)" stroke-width="1"/>
<line x1="95" y1="547" x2="112" y2="530" stroke="rgb(136,34,85)" stroke-width="1"/>
<line x1="112" y1="530" x2="129" y2="516" stroke="rgb(136,34,85)" stroke-width="1"/>
<line x1="129" y1="516" x2="146" y2="501" stroke="rgb(136,34,85)" stroke-width="1"/>
<line x1="146" y1="501" x2="163" y2="481" stroke="rgb(136,34,85)" stroke-width="1"/>
<line x1="163" y1="481" x2="180" y2="446" stroke="rgb(136,34,85)" stroke-width="1"/>
<line x1="180" y1="446" x2="197" y2="390" stroke="rgb(136,34,85)" stroke-width="1"/>
<line x1="197" y1="390" x2="214" y2="315" stroke="rgb(136,34,85)" stroke-width="1"/>
<line x1="214" y1="315" x2="231" y2="233" stroke="rgb(136,34,85)" stroke-width="1"/>
<line x1="231" y1="233" x2="248" y2="159" stroke="rgb(136,34,85)" stroke-width="1"/>
<line x1="248" y1="159" x2="265" y2="102" stroke="rgb(136,34,85)" stroke-width="1"/>
<line x1="265" y1="102" x2="282" y2="63" stroke="rgb(136,34,85)" stroke-width="1"/>
<line x1="282" y1="63" x2="299" y2="45" stroke="rgb(136,34,85)" stroke-width="1"/>
<line x1="299" y1="45" x2="316" y2="40" stroke="rgb(136,34,85)" stroke-width="1"/>
<line x1="316" y1="40" x2="333" y2="47" stroke="rgb(136,34,85)" stroke-width="1"/>
<line x1="333" y1="47" x2="350" y2="58" stroke="rgb(136,34,85)" stroke-width="1"/>
<line x1="350" y1="58" x2="367" y2="74" stroke="rgb(136,34,85)" stroke-width="1"/>
<line x1="367" y1="74" x2="384" y2="96" stroke="rgb(136,34,85)" stroke-width="1"/>
<line x1="384" y1="96" x2="401" y2="116" stroke="rgb(136,34,85)" stroke-width="1"/>
<line x1="401" y1="116" x2="418" y2="141" stroke="rgb(136,34,85)" stroke-width="1"/>
<line x1="418" y1="141" x2="435" y2="168" stroke="rgb(136,34,85)" stroke-width="1"/>
<line x1="435" y1="168" x2="452" y2="197" stroke="rgb(136,34,85)" stroke-width="1"/>
<line x1="452" y1="197" x2="469" y2="228" stroke="rgb(136,34,85)" stroke-width="1"/>
<line x1="469" y1="228" x2="486" y2="261" stroke="rgb(136,34,85)" stroke-width="1"/>
<line x1="486" y1="261" x2="503" y2="296" stroke="rgb(136,34,85)" stroke-width="1"/>
<line x1="503" y1="296" x2="520" y2="331" stroke="rgb(136,34,85)" stroke-width="1"/>
<line x1="520" y1="331" x2="537" y2="365" stroke="rgb(136,34,85)" stroke-width="1"/>
<line x1="537" y1="365" x2="554" y2="396" stroke="rgb(136,34,85)" stroke-width="1"/>
<line x1="554" y1="396" x2="571" y2="424" stroke="rgb(136,34,85)" stroke-width="1"/>
<line x1="571" y1="424" x2="588" y2="448" stroke="rgb(136,34,85)" stroke-width="1"/>
<line x1="588" y1="448" x2="605" y2="469" stroke="rgb(136,34,85)" stroke-width="1"/>
<line x1="605" y1="469" x2="622" y2="487" stroke="rgb(136,34,85)" stroke-width="1"/>
<line x1="622" y1="487" x2="639" y2="503" stroke="rgb(136,34,85)" stroke-width="1"/>
<line x1="639" y1="503" x2="656" y2="518" stroke="rgb(136,34,85)" stroke-width="1"/>
<line x1="656" y1="518" x2="673" y2="532" stroke="rgb(136,34,85)" stroke-width="1"/>
<line x1="673" y1="532" x2="690" y2="545" stroke="rgb(136,34,85)" stroke-width="1"/>
<line x1="690" y1="545" x2="707" y2="554" stroke="rgb(136,34,85)" stroke-width="1"/>
<line x1="707" y1="554" x2="724" y2="559" stroke="rgb(136,34,85)" stroke-width="1"/>
<line x1="724" y1="559" x2="741" y2="560" stroke="rgb(136,34,85)" stroke-width="1"/>
<rect width="183" height="23" x="607" y="40" style="fill:rgb(255,255,255);stroke:none"/>
<rect width="183" height="23" x="607" y="40" rx="0" ry="0" style="fill:none;stroke-width:1;stroke:rgb(192,192,192)"/>
<text x="610" y="55" fill="rgb(136,34,85)" font-family="Arial" font-size="12" font-weight="bold">Average Quality per read</text>
</svg>
